<svg xmlns="http://www.w3.org/2000/svg" width="230.57" height="96.178" viewBox="0 0 230.57 96.178"><defs><style>.a{fill:#333;}.b{fill:#257cf4;}</style></defs><g transform="translate(5670.047 -1484.557)"><path class="a" d="M13.6,0q-.275-.9-.613-1.85t-.663-1.9H5.575q-.325.95-.663,1.9T4.3,0H.25Q1.225-2.8,2.1-5.175T3.813-9.65q.838-2.1,1.65-3.987T7.15-17.325h3.725q.85,1.8,1.675,3.688T14.212-9.65q.838,2.1,1.713,4.475T17.775,0ZM8.925-13.4q-.125.375-.375,1.025t-.575,1.5Q7.65-10.025,7.262-9T6.475-6.85H11.4Q11-7.975,10.625-9t-.713-1.875q-.337-.85-.587-1.5T8.925-13.4ZM28.2-6.475a4.507,4.507,0,0,0-.775-2.763,2.689,2.689,0,0,0-2.3-1.038q-.5,0-.925.038t-.7.088v6.725a3.237,3.237,0,0,0,.912.375,4.4,4.4,0,0,0,1.138.15Q28.2-2.9,28.2-6.475Zm3.8-.1A9.635,9.635,0,0,1,31.625-3.8a6.244,6.244,0,0,1-1.1,2.15,4.966,4.966,0,0,1-1.8,1.4,5.808,5.808,0,0,1-2.475.5A6.676,6.676,0,0,1,24.8.1a6.979,6.979,0,0,1-1.3-.425v4.95H19.775V-12.7q.5-.15,1.15-.287t1.362-.237q.713-.1,1.45-.163t1.413-.062a8.077,8.077,0,0,1,2.9.488,5.96,5.96,0,0,1,2.15,1.375,5.9,5.9,0,0,1,1.337,2.162A8.312,8.312,0,0,1,32-6.575Zm11.3.1a4.507,4.507,0,0,0-.775-2.763,2.689,2.689,0,0,0-2.3-1.038q-.5,0-.925.038t-.7.088v6.725a3.237,3.237,0,0,0,.913.375,4.4,4.4,0,0,0,1.138.15Q43.3-2.9,43.3-6.475Zm3.8-.1A9.635,9.635,0,0,1,46.725-3.8a6.244,6.244,0,0,1-1.1,2.15,4.966,4.966,0,0,1-1.8,1.4,5.808,5.808,0,0,1-2.475.5A6.676,6.676,0,0,1,39.9.1a6.979,6.979,0,0,1-1.3-.425v4.95H34.875V-12.7q.5-.15,1.15-.287t1.362-.237q.712-.1,1.45-.163t1.412-.062a8.077,8.077,0,0,1,2.9.488,5.96,5.96,0,0,1,2.15,1.375,5.9,5.9,0,0,1,1.338,2.162A8.312,8.312,0,0,1,47.1-6.575ZM61.95,0q-.425-1.125-.8-2.213t-.775-2.213h-7.85L50.95,0H48.425q1-2.75,1.875-5.088t1.712-4.438q.838-2.1,1.663-4.012T55.4-17.325h2.225q.9,1.875,1.725,3.788t1.662,4.012q.838,2.1,1.713,4.438T64.6,0ZM59.675-6.425q-.8-2.175-1.588-4.212T56.45-14.55q-.875,1.875-1.662,3.913T53.225-6.425ZM72.125.3a7.076,7.076,0,0,1-2.763-.5,5.557,5.557,0,0,1-2-1.4A5.812,5.812,0,0,1,66.15-3.737a8.865,8.865,0,0,1-.4-2.737,8.276,8.276,0,0,1,.438-2.75,6.493,6.493,0,0,1,1.237-2.163,5.546,5.546,0,0,1,1.963-1.425,6.346,6.346,0,0,1,2.588-.512,10.34,10.34,0,0,1,1.75.15A8.05,8.05,0,0,1,75.4-12.7l-.525,1.975a5.593,5.593,0,0,0-1.213-.4,6.849,6.849,0,0,0-1.463-.15,3.7,3.7,0,0,0-2.987,1.225,5.4,5.4,0,0,0-1.038,3.575,7.337,7.337,0,0,0,.238,1.925,3.972,3.972,0,0,0,.75,1.5,3.345,3.345,0,0,0,1.313.963,5.016,5.016,0,0,0,1.95.337A7.385,7.385,0,0,0,74.1-1.925,6.125,6.125,0,0,0,75.275-2.3L75.6-.35a2.44,2.44,0,0,1-.575.238,8.054,8.054,0,0,1-.85.2q-.475.088-1.013.15A8.987,8.987,0,0,1,72.125.3ZM82.5-1.675q.825,0,1.463-.037a6.384,6.384,0,0,0,1.063-.138V-5.725a2.98,2.98,0,0,0-.812-.213,9.037,9.037,0,0,0-1.363-.088,8.8,8.8,0,0,0-1.113.075,3.428,3.428,0,0,0-1.075.313,2.3,2.3,0,0,0-.812.65A1.707,1.707,0,0,0,79.525-3.9a1.867,1.867,0,0,0,.8,1.738A4.164,4.164,0,0,0,82.5-1.675Zm-.2-11.65a6.738,6.738,0,0,1,2.363.363,3.829,3.829,0,0,1,1.55,1.025,3.881,3.881,0,0,1,.837,1.575A7.6,7.6,0,0,1,87.3-8.35V-.225l-.838.137Q85.925,0,85.25.075T83.787.213Q83,.275,82.225.275A8.563,8.563,0,0,1,80.2.05a4.529,4.529,0,0,1-1.6-.712A3.262,3.262,0,0,1,77.55-1.95a4.506,4.506,0,0,1-.375-1.925,3.7,3.7,0,0,1,.438-1.85A3.485,3.485,0,0,1,78.8-6.975a5.5,5.5,0,0,1,1.75-.7,9.542,9.542,0,0,1,2.1-.225q.35,0,.725.038t.713.1q.337.062.587.113t.35.075v-.65A5.228,5.228,0,0,0,84.9-9.363a2.6,2.6,0,0,0-.45-1,2.279,2.279,0,0,0-.887-.7,3.48,3.48,0,0,0-1.463-.262,10.984,10.984,0,0,0-2.012.162,7.037,7.037,0,0,0-1.288.338l-.275-1.925a7.164,7.164,0,0,1,1.5-.387A12.956,12.956,0,0,1,82.3-13.325ZM99.55-10.25a4.786,4.786,0,0,0-1.225-.675,4.607,4.607,0,0,0-1.75-.325,3.738,3.738,0,0,0-1.713.363,3.144,3.144,0,0,0-1.162,1,4.224,4.224,0,0,0-.65,1.512,8.4,8.4,0,0,0-.2,1.875,5.039,5.039,0,0,0,1.125,3.513,3.857,3.857,0,0,0,3,1.237,11.988,11.988,0,0,0,1.588-.087,7.524,7.524,0,0,0,.988-.188Zm0-8.75,2.325-.4V-.375q-.8.225-2.05.45A16.367,16.367,0,0,1,96.95.3a7.284,7.284,0,0,1-2.7-.475,5.786,5.786,0,0,1-2.05-1.35,5.965,5.965,0,0,1-1.312-2.138A8.205,8.205,0,0,1,90.425-6.5a9.254,9.254,0,0,1,.387-2.75A6.166,6.166,0,0,1,91.95-11.4a5.17,5.17,0,0,1,1.837-1.4,5.893,5.893,0,0,1,2.488-.5,6.04,6.04,0,0,1,1.987.3,6.275,6.275,0,0,1,1.288.575Zm5.6,12.525a8.3,8.3,0,0,1,.5-3.013,6.294,6.294,0,0,1,1.325-2.137,5.38,5.38,0,0,1,1.9-1.275,5.935,5.935,0,0,1,2.2-.425,5,5,0,0,1,4.025,1.637A7.532,7.532,0,0,1,116.5-6.7v.388a3.54,3.54,0,0,1-.025.438h-8.9A4.759,4.759,0,0,0,108.75-2.8a4.3,4.3,0,0,0,3.2,1.05,8.527,8.527,0,0,0,2.063-.213,7.435,7.435,0,0,0,1.263-.412l.325,1.95a6.912,6.912,0,0,1-1.487.475A10.573,10.573,0,0,1,111.7.3a7.653,7.653,0,0,1-2.937-.513,5.48,5.48,0,0,1-2.037-1.412,5.763,5.763,0,0,1-1.187-2.138A9.041,9.041,0,0,1,105.15-6.475Zm8.925-1.275a3.9,3.9,0,0,0-.787-2.588,2.712,2.712,0,0,0-2.237-1.012,3.066,3.066,0,0,0-1.413.313,3.331,3.331,0,0,0-1.037.813,3.74,3.74,0,0,0-.662,1.15,5.674,5.674,0,0,0-.312,1.325Zm5.775-4.875q.8-.2,2.113-.425A18.156,18.156,0,0,1,125-13.275a5.715,5.715,0,0,1,2.1.338,3.686,3.686,0,0,1,1.425.988q.175-.125.55-.35a6.056,6.056,0,0,1,.925-.438,9.718,9.718,0,0,1,1.225-.375,6.183,6.183,0,0,1,1.45-.163,5.888,5.888,0,0,1,2.45.438,3.517,3.517,0,0,1,1.488,1.238,4.813,4.813,0,0,1,.725,1.9,14.313,14.313,0,0,1,.188,2.4V0H135.2V-6.8a14.879,14.879,0,0,0-.113-1.975,3.819,3.819,0,0,0-.425-1.375,1.948,1.948,0,0,0-.85-.812,3.169,3.169,0,0,0-1.387-.263,5.151,5.151,0,0,0-1.937.313,3.8,3.8,0,0,0-1.038.563,8.583,8.583,0,0,1,.3,1.425,12.7,12.7,0,0,1,.1,1.625V0h-2.325V-6.8a13.41,13.41,0,0,0-.125-1.975,3.986,3.986,0,0,0-.438-1.375,1.948,1.948,0,0,0-.85-.812,3.1,3.1,0,0,0-1.362-.263q-.35,0-.75.025t-.763.063q-.362.037-.662.087t-.4.075V0H119.85ZM139.4,2.425a4.423,4.423,0,0,0,.712.237,3.454,3.454,0,0,0,.863.113,3.384,3.384,0,0,0,2.15-.613,5.268,5.268,0,0,0,1.4-1.987q-1.575-3-2.937-6.363A55.286,55.286,0,0,1,139.325-13h2.5q.275,1.125.663,2.425T143.35-7.9q.475,1.375,1.025,2.75t1.15,2.65q.95-2.625,1.65-5.2T148.5-13h2.4q-.9,3.675-2,7.063T146.525.4a13.35,13.35,0,0,1-1.038,1.938A5.842,5.842,0,0,1,144.3,3.675a4.333,4.333,0,0,1-1.462.775A6.242,6.242,0,0,1,141,4.7a4.64,4.64,0,0,1-.575-.037q-.3-.038-.587-.1t-.525-.137a2.569,2.569,0,0,1-.337-.125Z" transform="translate(-5590.377 1556.176)"/><g transform="translate(-5670.047 1484.557)"><path class="b" d="M49.375,96.178H6.5a6.414,6.414,0,0,1-2.522-.513A6.56,6.56,0,0,1,.513,92.2,6.422,6.422,0,0,1,0,89.679V62.47H4.52V84.156h46.83V62.47h4.52V89.682a6.422,6.422,0,0,1-.513,2.524,6.553,6.553,0,0,1-3.461,3.46A6.421,6.421,0,0,1,49.375,96.178ZM27.936,86.431a3.246,3.246,0,1,0,2.3.95A3.228,3.228,0,0,0,27.936,86.431ZM55.871,23.088h-4.52V10.3H4.52V23.087H0V6.5A6.418,6.418,0,0,1,.513,3.973,6.557,6.557,0,0,1,3.974.512,6.418,6.418,0,0,1,6.5,0H49.375A6.418,6.418,0,0,1,51.9.512a6.557,6.557,0,0,1,3.461,3.461A6.418,6.418,0,0,1,55.871,6.5V23.087ZM21.077,4.683a.787.787,0,0,0,0,1.575H34.795a.787.787,0,0,0,0-1.575Z" transform="translate(6.994 0)"/><path class="b" d="M67.926,86.568l-32.452-14.4a2.116,2.116,0,0,0-1.721,0L1.3,86.568a2.24,2.24,0,0,0,0,4.067l11.678,5.183v13.836c0,7.456,9.5,13.3,21.635,13.3s21.635-5.84,21.635-13.3V95.818l2.163-.96v6.278a2.164,2.164,0,1,0,4.327,0v-8.2l5.187-2.3A2.24,2.24,0,0,0,67.926,86.568ZM34.613,76.612,61.624,88.6l-2.142.951-24.6-3.15a2.175,2.175,0,0,0-2.415,1.924A2.206,2.206,0,0,0,34.345,90.8l17.327,2.219-17.059,7.572L7.6,88.6Zm17.308,33.042c0,2.088-1.673,4.238-4.59,5.9-6.948,3.954-18.467,3.965-25.435,0-2.917-1.66-4.59-3.81-4.59-5.9V97.739l16.448,7.3a2.116,2.116,0,0,0,1.721,0l16.448-7.3Z" transform="translate(0 -54.143)"/><path class="b" d="M2.191,0A2.315,2.315,0,0,1,4.522,2.191V3.784A2.315,2.315,0,0,1,2.191,5.975,2.191,2.191,0,0,1,0,3.784V2.191A2.191,2.191,0,0,1,2.191,0Z" transform="translate(6.994 19.165)"/><path class="b" d="M2.191,0A2.315,2.315,0,0,1,4.522,2.191V3.784A2.315,2.315,0,0,1,2.191,5.975,2.191,2.191,0,0,1,0,3.784V2.191A2.191,2.191,0,0,1,2.191,0Z" transform="translate(58.344 19.165)"/><path class="b" d="M2.191,0A2.315,2.315,0,0,1,4.522,2.191V3.784A2.315,2.315,0,0,1,2.191,5.975,2.191,2.191,0,0,1,0,3.784V2.191A2.191,2.191,0,0,1,2.191,0Z" transform="translate(58.344 59.398)"/><path class="b" d="M2.191,0A2.315,2.315,0,0,1,4.522,2.191V3.784A2.315,2.315,0,0,1,2.191,5.975,2.191,2.191,0,0,1,0,3.784V2.191A2.191,2.191,0,0,1,2.191,0Z" transform="translate(6.994 59.398)"/></g><g transform="translate(-5590.5 1515.229)"><path class="a" d="M529.3,332.353v.829l.076,7.921,2.4-.024-.076-8.067a12.427,12.427,0,0,1,2.738-.492V330.39a13.6,13.6,0,0,0-5.164,1.237Z" transform="translate(-518.172 -325.515)"/><path class="a" d="M783.025,329.961v.829l.076,7.919,2.414-.022-.078-8.067a12.352,12.352,0,0,1,2.736-.494V328a13.569,13.569,0,0,0-5.163,1.239Z" transform="translate(-724.969 -323.567)"/><path class="a" d="M474.844,313.239l-3.2.031h-.424l-1.992.019.133,13.94,2.4-.024-.044-4.624,2.775-.026c2.972-.03,5.163-1.766,5.135-4.772A4.406,4.406,0,0,0,474.844,313.239Zm-1.156,7.17-1.974.018-.048-4.994,2.4-.022c2.606-.026,3.074,1,3.089,2.436S476.659,320.381,473.688,320.408Z" transform="translate(-469.23 -311.536)"/><path class="a" d="M567.782,336.426c0-.575,0-1.226-.013-2.105a4.481,4.481,0,0,0-4.687-4.182c-4.883.05-4.587,5.377-4.587,5.377.039,4.049,2.2,5.312,4.915,5.286a7.708,7.708,0,0,0,3.9-.9l-.026-2.044s-.871.908-3.589.873-2.59-2.246-2.59-2.246Zm-6.716-1.733s-.228-2.492,1.979-2.493,2.149,2.453,2.149,2.453Z" transform="translate(-541.98 -325.31)"/><path class="a" d="M732.36,328.519c-4.885.052-4.586,5.377-4.586,5.377.037,4.049,2.2,5.312,4.913,5.287a7.708,7.708,0,0,0,3.9-.9l-.019-2.044s-.871.908-3.588.873-2.59-2.244-2.59-2.244l6.681-.065c0-.575,0-1.225-.013-2.105A4.493,4.493,0,0,0,732.36,328.519Zm2.112,4.513-4.129.041s-.228-2.492,1.981-2.493S734.472,333.032,734.472,333.032Z" transform="translate(-679.947 -323.99)"/><path class="a" d="M625.489,329.28a8.614,8.614,0,0,0-3.683.856,5.257,5.257,0,0,0-2.937-.794,8,8,0,0,0-4.234,1.151c-.111.05-.115.08-.115.08v1.557l.089,7.919,2.4-.022-.078-8.067a.93.93,0,0,0-.015-.105c1.6-.784,4.025-.246,4.038,1.082.013,1.389.089,7.051.089,7.051h.176l1.728-.017h.609l-.065-6.827a3.471,3.471,0,0,0-.331-1.43c2.469-.766,4.406-.063,4.417,1.165.015,1.391.089,7.053.089,7.053l2.512-.024-.065-6.827C630.11,331.337,628.682,329.286,625.489,329.28Z" transform="translate(-587.645 -324.61)"/><rect class="a" width="2.423" height="10.475" transform="translate(44.063 4.795) rotate(-0.55)"/><rect class="a" width="2.421" height="2.238" transform="translate(44.022 1.095) rotate(-0.55)"/><path class="a" d="M981.693,321.734a4.846,4.846,0,0,1-1.532.218c-.762,0-.964-.708-1.01-1.221l-.048-5.105,2.53-.024-.02-2.094-2.53.024-.029-3.122-2.423.022.1,10.429a3.115,3.115,0,0,0,3.27,3.219,3.836,3.836,0,0,0,1.713-.37Z" transform="translate(-882.775 -309.231)"/><path class="a" d="M939.953,308.372l-2.431.024h-.037c-.017-.9.05-1.371.448-1.752a2.4,2.4,0,0,1,2-.555s-.028-.9-.018-2c-.982-.113-2.96-.155-3.934,1.2a4.716,4.716,0,0,0-.862,3.13h-.005l-1.791.018.02,2.094,1.791-.017v.285c.024,3.27,0,.614,0,.614l.072,7.48,2.423-.022-.081-8.381,2.431-.024Z" transform="translate(-847.476 -304.036)"/><path class="a" d="M886.677,326.728c-3.466.094-4.867,2.464-4.839,5.447s1.341,5.388,4.941,5.353c3.7-.035,4.868-2.466,4.841-5.447S890.149,326.634,886.677,326.728Zm.083,8.736c-2.22.02-2.419-1.48-2.436-3.313s.231-3.3,2.371-3.359,2.484,1.48,2.5,3.313-.148,3.337-2.429,3.365Z" transform="translate(-805.516 -322.529)"/><path class="a" d="M830.7,314.434c-1.785-.442-2.035-1.052-2.035-1.513s.015-1.665,2.314-1.739a6.546,6.546,0,0,1,3.871,1.1l-.024-2.512c-6.444-2.453-8.758,1.034-8.708,3s1.167,3.391,3.933,4.04,3.145,1.565,3.18,2.175-.046,1.689-2.621,1.805a6.4,6.4,0,0,1-4.179-1.249l.022,2.392a8.018,8.018,0,0,0,4.393,1.195c1.992-.041,5.022-.947,4.959-4.136S832.481,314.878,830.7,314.434Z" transform="translate(-760.101 -308.019)"/></g></g></svg>